<?xml version="1.0" encoding="UTF-8"?>
<svg id="Capa_2" data-name="Capa 2" xmlns="http://www.w3.org/2000/svg" viewBox="0 0 727.85 194">
  <defs>
    <style>
      .cls-1 {
        fill: #fff;
      }
    </style>
  </defs>
  <g id="DISEÑO">
    <g>
      <g>
        <path class="cls-1" d="m34.1,158.34c9.86,0,15.32,6.2,15.9,14.63l-6.36.26c-.48-4.98-3.45-9.06-9.54-9.06s-9.86,4.45-9.86,11.5,3.92,11.5,9.86,11.5,9.06-4.08,9.54-9.06l6.36.27c-.58,8.48-6.04,14.63-15.9,14.63s-16.75-7.05-16.75-17.33,7.26-17.33,16.75-17.33Z"/>
        <path class="cls-1" d="m74.85,158.97l13.62,33.39h-7.05l-3.34-8.27h-14.2l-3.23,8.27h-6.68l13.51-33.39h7.37Zm-8.96,20.03h10.17l-5.03-12.51h-.21l-4.93,12.51Z"/>
        <path class="cls-1" d="m99.13,180.22c.26,5.19,4.03,7.53,8.69,7.53,4.13,0,6.78-1.64,6.78-4.45,0-2.54-2.01-3.5-5.51-4.19l-6.36-1.17c-5.19-.95-8.8-3.82-8.8-9.33,0-6.25,4.93-10.28,12.72-10.28,8.74,0,13.67,4.5,13.78,11.92l-6.09.21c-.21-4.56-3.18-6.94-7.74-6.94-3.92,0-6.15,1.75-6.15,4.61,0,2.44,1.75,3.29,4.77,3.87l6.15,1.11c6.57,1.22,9.65,4.35,9.65,9.75,0,6.57-5.67,10.12-13.2,10.12-8.58,0-14.79-4.45-14.79-12.51l6.09-.26Z"/>
        <path class="cls-1" d="m136.02,158.97v33.39h-6.62v-33.39h6.62Z"/>
        <path class="cls-1" d="m167.97,181.23v-22.26h6.15v33.39h-5.3l-17.06-23.53v23.53h-6.15v-33.39h6.57l15.79,22.26Z"/>
        <path class="cls-1" d="m199.08,192.99c-9.75,0-16.96-7.05-16.96-17.33s7.21-17.33,16.96-17.33,16.91,7.05,16.91,17.33-7.21,17.33-16.91,17.33Zm0-28.83c-6.15,0-10.07,4.51-10.07,11.5s3.92,11.5,10.07,11.5,10.07-4.5,10.07-11.5-3.92-11.5-10.07-11.5Z"/>
        <path class="cls-1" d="m247.37,192.36v-27.88h-11.82v-5.51h30.42v5.51h-11.98v27.88h-6.62Z"/>
        <path class="cls-1" d="m287.12,192.99c-9.75,0-16.96-7.05-16.96-17.33s7.21-17.33,16.96-17.33,16.91,7.05,16.91,17.33-7.21,17.33-16.91,17.33Zm0-28.83c-6.15,0-10.07,4.51-10.07,11.5s3.92,11.5,10.07,11.5,10.07-4.5,10.07-11.5-3.92-11.5-10.07-11.5Z"/>
        <path class="cls-1" d="m333.54,192.36c-.69-.9-1.11-3.18-1.38-6.89-.27-3.76-1.96-5.46-5.78-5.46h-7.84v12.35h-6.52v-33.39h15.1c8.53,0,12.72,3.97,12.72,10.18,0,5.03-3.29,7.95-7.37,8.48,3.82.74,5.78,2.97,6.15,6.89.42,4.93.58,6.62,1.7,7.84h-6.78Zm-7.31-17.54c4.82,0,7.05-1.59,7.05-5.19,0-3.34-2.23-5.3-7.05-5.3h-7.68v10.49h7.68Z"/>
        <path class="cls-1" d="m369.95,192.36c-.69-.9-1.11-3.18-1.38-6.89-.27-3.76-1.96-5.46-5.78-5.46h-7.84v12.35h-6.52v-33.39h15.1c8.53,0,12.72,3.97,12.72,10.18,0,5.03-3.29,7.95-7.37,8.48,3.82.74,5.78,2.97,6.15,6.89.42,4.93.58,6.62,1.7,7.84h-6.78Zm-7.31-17.54c4.82,0,7.05-1.59,7.05-5.19,0-3.34-2.23-5.3-7.05-5.3h-7.68v10.49h7.68Z"/>
        <path class="cls-1" d="m409.81,192.36h-24.96v-33.39h24.48v5.51h-17.96v8.11h14.1v5.46h-14.1v8.8h18.44v5.51Z"/>
        <path class="cls-1" d="m445.05,187.59l3.02,3.44-3.71,2.97-2.97-3.39c-2.6,1.54-5.62,2.38-8.9,2.38-9.75,0-16.96-7.05-16.96-17.33s7.21-17.33,16.96-17.33,16.91,7.05,16.91,17.33c0,4.82-1.64,8.9-4.35,11.92Zm-12.56-23.42c-6.15,0-10.07,4.51-10.07,11.5s3.92,11.61,10.07,11.61c1.91,0,3.6-.37,4.98-1.11l-3.55-4.08,3.66-3.13,3.39,3.92c1.06-1.85,1.64-4.29,1.64-7.21,0-6.99-3.97-11.5-10.12-11.5Z"/>
        <path class="cls-1" d="m457.09,179.37v-20.4h6.57v19.71c0,5.78,2.44,8.74,7.68,8.74s7.74-2.97,7.74-8.69v-19.77h6.62v20.4c0,9.75-6.36,13.62-14.36,13.62s-14.25-3.87-14.25-13.62Z"/>
        <path class="cls-1" d="m519.84,192.36h-24.96v-33.39h24.48v5.51h-17.96v8.11h14.1v5.46h-14.1v8.8h18.44v5.51Z"/>
        <path class="cls-1" d="m543.9,192.36h-15.69v-33.39h14.84c8.43,0,12.03,3.6,12.03,9.06,0,3.76-2.54,6.41-6.15,7,4.03.74,7.15,3.39,7.15,8.16,0,5.78-4.4,9.17-12.19,9.17Zm-9.22-19.5h7.95c3.97,0,5.67-1.75,5.67-4.24s-1.7-4.29-5.67-4.29h-7.95v8.53Zm0,5.04v9.11h8.48c4.13,0,6.15-1.75,6.15-4.5s-2.01-4.61-6.15-4.61h-8.48Z"/>
        <path class="cls-1" d="m585.77,192.36c-.69-.9-1.11-3.18-1.38-6.89-.27-3.76-1.96-5.46-5.78-5.46h-7.84v12.35h-6.52v-33.39h15.1c8.53,0,12.72,3.97,12.72,10.18,0,5.03-3.29,7.95-7.37,8.48,3.82.74,5.78,2.97,6.15,6.89.42,4.93.58,6.62,1.7,7.84h-6.78Zm-7.31-17.54c4.82,0,7.05-1.59,7.05-5.19,0-3.34-2.23-5.3-7.05-5.3h-7.68v10.49h7.68Z"/>
        <path class="cls-1" d="m618.94,158.97l13.62,33.39h-7.05l-3.34-8.27h-14.2l-3.23,8.27h-6.68l13.51-33.39h7.37Zm-8.96,20.03h10.17l-5.03-12.51h-.21l-4.93,12.51Z"/>
        <path class="cls-1" d="m639.51,158.97h12.61c10.76,0,17.43,6.25,17.43,16.69s-6.68,16.69-17.43,16.69h-12.61v-33.39Zm12.19,28.09c7.05,0,11.02-4.24,11.02-11.45s-3.97-11.34-11.02-11.34h-5.56v22.79h5.56Z"/>
        <path class="cls-1" d="m694.31,158.97l13.62,33.39h-7.05l-3.34-8.27h-14.2l-3.23,8.27h-6.68l13.51-33.39h7.37Zm-8.96,20.03h10.17l-5.03-12.51h-.21l-4.93,12.51Z"/>
      </g>
      <g>
        <path class="cls-1" d="m0,79.21c0-21.32,14.38-35.19,36.21-35.19,19.38,0,32.85,9.79,32.85,25.6v.82h-12.14v-.82c0-9.79-6.83-15.1-21.01-15.1-16.42,0-24.28,7.65-24.28,24.69s7.75,24.58,23.77,24.58,22.75-4.49,22.75-16.01v-.92h-25.3v-8.36h36.21v34.89h-10v-14.79h-.71c-2.86,10-11.53,15.81-24.89,15.81C13.36,114.41,0,100.53,0,79.21Z"/>
        <path class="cls-1" d="m75.28,113.38V45.04h35.5c15.5,0,25.09,7.34,25.09,20.09,0,11.32-7.45,18.26-20.3,18.97v.71c5.3,1.43,7.75,4.49,10.2,8.77l11.42,19.79h-12.65l-10.92-18.87c-3.06-5.41-6.22-7.65-14.79-7.65h-12.55v26.52h-11.02Zm11.02-34.99h24.38c9.18,0,13.77-3.16,13.77-11.73s-4.59-11.73-13.77-11.73h-24.38v23.46Z"/>
        <path class="cls-1" d="m140.36,113.38l30.5-68.34h15.5l30.5,68.34h-12.44l-7.85-17.75h-36.11l-7.85,17.75h-12.24Zm24.48-27.64h27.34l-9.28-20.81-3.98-9.69h-.82l-3.98,9.69-9.28,20.81Z"/>
        <path class="cls-1" d="m221.96,113.38V45.04h11.83l30.6,39.99,8.88,12.75h.82l-.51-12.34v-40.39h11.02v68.34h-11.83l-30.81-39.88-8.57-12.04h-.82l.41,11.83v40.09h-11.02Z"/>
        <path class="cls-1" d="m303.81,136.06V0h5.26v136.06h-5.26Z"/>
        <path class="cls-1" d="m330.05,113.38V45.04h14.99l19.69,39.58,6.22,14.18h.82l6.02-14.18,19.48-39.58h15v68.34h-11.02v-41.92l.41-9.89h-.82l-4.18,9.89-18.87,37.84h-13.26l-18.87-37.84-4.18-9.89h-.82l.41,9.89v41.92h-11.02Z"/>
        <path class="cls-1" d="m416.39,113.38l30.5-68.34h15.5l30.5,68.34h-12.44l-7.85-17.75h-36.11l-7.85,17.75h-12.24Zm24.48-27.64h27.34l-9.28-20.81-3.98-9.69h-.82l-3.98,9.69-9.28,20.81Z"/>
        <path class="cls-1" d="m498.61,113.38V45.04h31.11c21.22,0,34.58,13.06,34.58,34.17s-13.36,34.17-34.58,34.17h-31.11Zm10.92-58.45v48.55h20.2c15.81,0,22.95-6.73,22.95-24.28s-7.14-24.28-22.95-24.28h-20.2Z"/>
        <path class="cls-1" d="m572.45,113.38V45.04h35.5c15.5,0,25.09,7.34,25.09,20.09,0,11.32-7.45,18.26-20.3,18.97v.71c5.3,1.43,7.75,4.49,10.2,8.77l11.42,19.79h-12.65l-10.92-18.87c-3.06-5.41-6.22-7.65-14.79-7.65h-12.55v26.52h-11.02Zm11.02-34.99h24.38c9.18,0,13.77-3.16,13.77-11.73s-4.59-11.73-13.77-11.73h-24.38v23.46Z"/>
        <path class="cls-1" d="m641,113.38V45.04h11.02v68.34h-11.02Z"/>
        <path class="cls-1" d="m662.16,113.38V45.04h31.11c21.22,0,34.58,13.06,34.58,34.17s-13.36,34.17-34.58,34.17h-31.11Zm10.92-58.45v48.55h20.2c15.81,0,22.95-6.73,22.95-24.28s-7.14-24.28-22.95-24.28h-20.2Z"/>
      </g>
    </g>
  </g>
</svg>